# xmcd
#
# Track frame offsets: 
#        150
#        19452
#        32792
#        52777
#        70280
#        87192
#        102916
#        118373
#        135349
#        152422
#        170685
#        186996
#        200617
#
# Disc length: 2916 seconds
#
# Revision: 0
# Processed by: cddbd v1.5.2PL0 Copyright (c) Steve Scherf et al.
# Submitted via: ExactAudioCopy v0.99pb5
#
DISCID=b20b620d
DTITLE=Krzysztof Krawczyk - Leksykon  CD10 - W barwach latino
DYEAR=2007
DGENRE=Acid Punk
TTITLE0=W Barwach Latino
TTITLE1=La Bamba
TTITLE2=Daj Mi Zachowac Marzenia
TTITLE3=Besame Mucho
TTITLE4=To Canzone D'amore
TTITLE5=Amor Amor
TTITLE6=Oczy Marii
TTITLE7=Pamietam Ciebie Z Tamtych Lat
TTITLE8=Lato Z Radiem
TTITLE9=Jak Minal Dzien
TTITLE10=Canzone D'amore
TTITLE11=Parostatek
TTITLE12=Amore Mio
EXTD=
EXTT0=
EXTT1=
EXTT2=
EXTT3=
EXTT4=
EXTT5=
EXTT6=
EXTT7=
EXTT8=
EXTT9=
EXTT10=
EXTT11=
EXTT12=
PLAYORDER=
